<svg width="84" height="23" viewBox="0 0 84 23" fill="none" xmlns="http://www.w3.org/2000/svg">
<path d="M8.65547 13.8487C8.94879 14.4073 9.53446 14.7882 10.2091 14.7882H12.2134C13.2511 14.7882 14.0923 13.947 14.0923 12.9092C14.0923 11.8715 13.2511 11.0303 12.2134 11.0303H10.3344C9.29665 11.0303 8.4554 10.189 8.4554 9.15128C8.4554 8.11355 9.29665 7.2723 10.3344 7.2723H12.3386C13.0133 7.2723 13.5989 7.65326 13.8923 8.21179M11.2739 5.86307V7.2723M11.2739 14.7882V16.1974M18.7898 11.5C18.7898 16.1114 13.7598 19.4654 11.9296 20.5331C11.7216 20.6544 11.6176 20.7151 11.4709 20.7466C11.357 20.771 11.1908 20.771 11.0769 20.7466C10.9301 20.7151 10.8261 20.6544 10.6181 20.5331C8.78794 19.4654 3.75796 16.1114 3.75796 11.5V7.00699C3.75796 6.25586 3.75796 5.88029 3.8808 5.55745C3.98933 5.27226 4.16568 5.01779 4.39461 4.81603C4.65375 4.58765 5.00541 4.45578 5.70871 4.19204L10.7461 2.30304C10.9414 2.22979 11.039 2.19317 11.1395 2.17865C11.2286 2.16578 11.3191 2.16578 11.4082 2.17865C11.5087 2.19317 11.6064 2.22979 11.8017 2.30304L16.839 4.19204C17.5423 4.45578 17.894 4.58765 18.1531 4.81603C18.3821 5.01779 18.5584 5.27226 18.6669 5.55745C18.7898 5.88029 18.7898 6.25586 18.7898 7.00699V11.5Z" stroke="white" stroke-width="2.14075" stroke-linecap="round" stroke-linejoin="round"/>
<path d="M28.2605 19V3.92126H31.3774V10.9546C31.7485 10.5094 32.1196 10.0641 32.4906 9.6188C32.8617 9.17352 33.2361 8.72487 33.6139 8.27284L37.3381 3.92126H41.0724L35.4254 10.4385L41.2242 19H37.6316L33.3711 12.5333L31.3774 14.8508V19H28.2605ZM44.8378 19.1822C43.7718 19.1822 42.8914 18.9157 42.1965 18.3827C41.5083 17.8497 41.1642 17.0502 41.1642 15.9843C41.1642 15.1814 41.3565 14.554 41.7411 14.1019C42.1256 13.6432 42.635 13.3092 43.2692 13.1001C43.9034 12.8909 44.5915 12.7526 45.3337 12.6851C46.3119 12.5839 46.9967 12.4827 47.388 12.3815C47.7793 12.2803 47.975 12.0577 47.975 11.7136V11.6428C47.975 11.2515 47.8198 10.931 47.5095 10.6814C47.1991 10.4318 46.7707 10.307 46.2242 10.307C45.671 10.307 45.2224 10.4351 44.8783 10.6915C44.5342 10.9479 44.3453 11.2818 44.3116 11.6934H41.5083C41.5758 10.5937 42.0278 9.72 42.8644 9.07232C43.701 8.4179 44.8513 8.09069 46.3153 8.09069C47.7793 8.09069 48.9128 8.4179 49.7156 9.07232C50.5185 9.72 50.9199 10.6139 50.9199 11.7541V19H48.0053V17.4921H47.9649C47.6815 18.0116 47.2936 18.4232 46.8011 18.7268C46.3086 19.0304 45.6541 19.1822 44.8378 19.1822ZM45.6676 17.1076C46.3828 17.1076 46.9495 16.9187 47.3678 16.5409C47.7861 16.1563 47.9952 15.6739 47.9952 15.0937V14.021C47.8266 14.1154 47.5466 14.2031 47.1553 14.2841C46.764 14.3583 46.3288 14.4325 45.8498 14.5067C45.337 14.5877 44.9019 14.7361 44.5443 14.952C44.1935 15.1612 44.0181 15.4783 44.0181 15.9033C44.0181 16.2811 44.1665 16.578 44.4634 16.7938C44.767 17.003 45.1684 17.1076 45.6676 17.1076ZM54.5538 19L51.2648 8.31332H54.3817L55.3634 12.0476C55.5253 12.6818 55.6804 13.3328 55.8289 14.0007C55.9773 14.6687 56.1257 15.3332 56.2742 15.9944C56.4361 15.3332 56.598 14.6687 56.7599 14.0007C56.9218 13.3328 57.0871 12.6818 57.2558 12.0476L58.2779 8.31332H60.9698L61.9818 12.0476C62.1505 12.675 62.3158 13.3227 62.4777 13.9906C62.6396 14.6585 62.7982 15.3231 62.9533 15.9843C63.1018 15.3231 63.2468 14.6619 63.3885 14.0007C63.5369 13.3328 63.6887 12.6818 63.8439 12.0476L64.8154 8.31332H67.9829L64.694 19H61.6074L60.3626 14.7496C60.2344 14.3043 60.1096 13.8456 59.9882 13.3733C59.8667 12.901 59.7453 12.4254 59.6239 11.9464C59.5024 12.4254 59.381 12.901 59.2595 13.3733C59.1381 13.8456 59.0099 14.3043 58.875 14.7496L57.6201 19H54.5538ZM71.3739 19.1822C70.308 19.1822 69.4275 18.9157 68.7326 18.3827C68.0445 17.8497 67.7004 17.0502 67.7004 15.9843C67.7004 15.1814 67.8927 14.554 68.2772 14.1019C68.6618 13.6432 69.1712 13.3092 69.8053 13.1001C70.4395 12.8909 71.1277 12.7526 71.8698 12.6851C72.8481 12.5839 73.5329 12.4827 73.9242 12.3815C74.3155 12.2803 74.5111 12.0577 74.5111 11.7136V11.6428C74.5111 11.2515 74.356 10.931 74.0456 10.6814C73.7353 10.4318 73.3069 10.307 72.7604 10.307C72.2072 10.307 71.7585 10.4351 71.4144 10.6915C71.0703 10.9479 70.8814 11.2818 70.8477 11.6934H68.0445C68.1119 10.5937 68.564 9.72 69.4005 9.07232C70.2371 8.4179 71.3874 8.09069 72.8515 8.09069C74.3155 8.09069 75.4489 8.4179 76.2518 9.07232C77.0546 9.72 77.456 10.6139 77.456 11.7541V19H74.5415V17.4921H74.501C74.2176 18.0116 73.8297 18.4232 73.3372 18.7268C72.8447 19.0304 72.1903 19.1822 71.3739 19.1822ZM72.2038 17.1076C72.9189 17.1076 73.4856 16.9187 73.9039 16.5409C74.3222 16.1563 74.5314 15.6739 74.5314 15.0937V14.021C74.3627 14.1154 74.0827 14.2031 73.6914 14.2841C73.3001 14.3583 72.8649 14.4325 72.3859 14.5067C71.8732 14.5877 71.438 14.7361 71.0805 14.952C70.7296 15.1612 70.5542 15.4783 70.5542 15.9033C70.5542 16.2811 70.7027 16.578 70.9995 16.7938C71.3031 17.003 71.7045 17.1076 72.2038 17.1076ZM81.7173 3.92126V19H78.732V3.92126H81.7173Z" fill="white"/>
</svg>
